{"asset":{"generator":"3D Builder","version":"2.0"},"scene":0,"scenes":[{"nodes":[0]}],"nodes":[{"mesh":0,"matrix":[1,0,0,0,0,-1.1920928955078125E-7,-0.99999988079071045,0,0,0.99999988079071045,-1.1920928955078125E-7,0,-1.4463138580322266,0.5526350736618042,0.08685746043920517,1]}],"meshes":[{"primitives":[{"attributes":{"POSITION":0,"COLOR_0":1},"mode":4,"indices":2}]}],"accessors":[{"bufferView":0,"byteOffset":0,"count":42,"componentType":5126,"type":"VEC3","min":[0.49525600671768188,-0.91314226388931274,-0.552635133266449],"max":[2.397371768951416,1.0868573188781738,1.4473645687103271]},{"bufferView":1,"byteOffset":0,"count":42,"componentType":5121,"type":"VEC4","normalized":true},{"bufferView":2,"byteOffset":0,"count":240,"componentType":5125,"type":"SCALAR"}],"bufferViews":[{"buffer":0,"byteOffset":0,"byteLength":504,"byteStride":12,"target":34962},{"buffer":0,"byteOffset":504,"byteLength":168,"byteStride":4,"target":34962},{"buffer":0,"byteOffset":672,"byteLength":960,"target":34963}],"buffers":[{"byteLength":1632,"uri":"shape.bin"}]}